<svg xmlns="http://www.w3.org/2000/svg" viewBox="0 0 200 200" role="img" aria-label="Bite Wise">
  <defs>
    <mask id="m-b" maskUnits="userSpaceOnUse" x="0" y="0" width="200" height="200">
      <rect x="28" y="16" width="84" height="168" rx="10" fill="#fff"/>
      <rect x="96" y="16" width="26" height="84" fill="#fff"/><circle cx="121" cy="58" r="42" fill="#fff"/>
      <rect x="96" y="92" width="30" height="92" fill="#fff"/><circle cx="124" cy="134" r="50" fill="#fff"/>
      <circle cx="154" cy="22" r="13" fill="#000"/><circle cx="166" cy="42" r="10" fill="#000"/><circle cx="141" cy="12" r="9" fill="#000"/>
      <g fill="#000"><rect x="52" y="32" width="10" height="46" rx="5"/><rect x="66" y="32" width="10" height="46" rx="5"/><rect x="80" y="32" width="10" height="46" rx="5"/><rect x="94" y="32" width="10" height="46" rx="5"/>
      <path d="M52 70 L104 70 L104 86 Q104 102 87 111 L87 200 L69 200 L69 111 Q52 102 52 86 Z"/></g>
      <path d="M98 178 C 98 142, 120 114, 162 104 C 162 148, 138 176, 98 178 Z" fill="#000" stroke="#000" stroke-width="16" stroke-linejoin="round"/>
    </mask>
    <mask id="m-v" maskUnits="userSpaceOnUse" x="0" y="0" width="200" height="200">
      <rect width="200" height="200" fill="#fff"/><path d="M106 170 C 122 146, 138 128, 156 112" fill="none" stroke="#000" stroke-width="5" stroke-linecap="round"/>
    </mask>
  </defs>
  <rect width="200" height="200" rx="44" fill="#FFFFFF"/>
  <g transform="translate(18 18) scale(.82)"><g class="b"><rect width="200" height="200" fill="#14284B" mask="url(#m-b)"/></g>
  <g class="leaf"><path d="M98 178 C 98 142, 120 114, 162 104 C 162 148, 138 176, 98 178 Z" fill="#4E9F3D" mask="url(#m-v)"/></g></g>
</svg>
